# xmcd
#
# Track frame offsets:
#	150
#	52543
#	67488
#	80325
#	97086
#	111912
#	126701
#	141744
#	155651
#	170353
#	184744
#	199372
#	214206
#	230174
#	245615
#
# Disc length: 3507 seconds
#
# Revision: 0
# Processed by: cddbd v1.5.2PL0 Copyright (c) Steve Scherf et al.
# Submitted via: audiograbber 1.83.01
#
DISCID=f20db10f
DTITLE=Annett Louisan - Das optimale Leben
DYEAR=1900
DGENRE=
TTITLE0=Der kleine Unterschied
TTITLE1=Das alles wär nie passiert
TTITLE2=Kleine Zwischenfälle
TTITLE3=Was haben wir gesucht
TTITLE4=Er
TTITLE5=Die Wahrheit
TTITLE6=Wenn man sich nicht mehr liebt
TTITLE7=Ich ...be Dich
TTITLE8=Die sein
TTITLE9=Mein innerer Schweinehund
TTITLE10=Gendefekt
TTITLE11=Unbekümmert
TTITLE12=Rosenkrieg
TTITLE13=Dings
TTITLE14=Ende Dezember
EXTD=
EXTT0=
EXTT1=
EXTT2=
EXTT3=
EXTT4=
EXTT5=
EXTT6=
EXTT7=
EXTT8=
EXTT9=
EXTT10=
EXTT11=
EXTT12=
EXTT13=
EXTT14=
PLAYORDER=
